{
  "asset": {
    "version": "2.0",
    "generator": "3dpea GLTFExporter"
  },
  "scenes": [
    {
      "name": "AuxScene",
      "nodes": [
        2
      ]
    }
  ],
  "scene": 0,
  "nodes": [
    {
      "matrix": [
        0.032601844519376755,
        0,
        0,
        0,
        0,
        0.03260185196995735,
        0,
        0,
        0,
        0,
        0.03260185196995735,
        0,
        -0.11295250058174133,
        -0.006809040438383818,
        0.20005740225315094,
        1
      ],
      "name": "mesh_id27",
      "mesh": 0
    },
    {
      "name": "root",
      "extras": {
        "name": "root"
      },
      "children": [
        0
      ]
    },
    {
      "name": "Test3D",
      "children": [
        1
      ]
    }
  ],
  "bufferViews": [
    {
      "buffer": 0,
      "byteOffset": 0,
      "byteLength": 52356,
      "target": 34962,
      "byteStride": 12
    },
    {
      "buffer": 0,
      "byteOffset": 52356,
      "byteLength": 52356,
      "target": 34962,
      "byteStride": 12
    },
    {
      "buffer": 0,
      "byteOffset": 104712,
      "byteLength": 51132,
      "target": 34963
    }
  ],
  "buffers": [
    {
      "byteLength": 155844,
      "uri": "data:application/octet-stream;base64,"
    }
  ],
  "accessors": [
    {
      "bufferView": 0,
      "componentType": 5126,
      "count": 4363,
      "max": [
        2.2561769485473633,
        7.86088228225708,
        1.7499704360961914
      ],
      "min": [
        -2.2601356506347656,
        -8.089133262634277,
        -1.7443852424621582
      ],
      "type": "VEC3"
    },
    {
      "bufferView": 1,
      "componentType": 5126,
      "count": 4363,
      "max": [
        0.9996253252029419,
        0.9996951818466187,
        0.9997720122337341
      ],
      "min": [
        -0.9999966621398926,
        -0.9999999403953552,
        -0.9993693828582764
      ],
      "type": "VEC3"
    },
    {
      "bufferView": 2,
      "componentType": 5123,
      "count": 25566,
      "max": [
        4362
      ],
      "min": [
        0
      ],
      "type": "SCALAR"
    }
  ],
  "materials": [
    {
      "pbrMetallicRoughness": {
        "metallicFactor": 0,
        "roughnessFactor": 1,
        "baseColorTexture": {
          "index": 0
        }
      },
      "doubleSided": true,
      "name": "48"
    }
  ],
  "textures": [
    {
      "sampler": 0,
      "source": 0,
      "name": "texture151"
    }
  ],
  "samplers": [
    {
      "magFilter": 9729,
      "minFilter": 9985,
      "wrapS": 10497,
      "wrapT": 10497
    }
  ],
  "images": [
    {
      "mimeType": "image/png",
      "uri": "data:image/png;base64,"
    }
  ],
  "meshes": [
    {
      "primitives": [
        {
          "mode": 4,
          "attributes": {
            "POSITION": 0,
            "NORMAL": 1
          },
          "indices": 2,
          "material": 0
        }
      ]
    }
  ]
}